<svg width="27" height="21" viewBox="0 0 27 21" fill="none" xmlns="http://www.w3.org/2000/svg">
<path d="M26.4191 7.10597C26.6242 6.94293 26.9293 7.09546 26.9293 7.35318V18.1091C26.9293 19.5029 25.7985 20.6337 24.4047 20.6337H2.52462C1.13082 20.6337 0 19.5029 0 18.1091V7.35844C0 7.09546 0.299799 6.94819 0.510184 7.11123C1.68834 8.02641 3.25045 9.18879 8.61527 13.0862C9.72505 13.8962 11.5975 15.6003 13.4646 15.5898C15.3423 15.6055 17.2516 13.8646 18.3193 13.0862C23.6841 9.18879 25.241 8.02115 26.4191 7.10597ZM13.4646 13.9014C14.6849 13.9225 16.4416 12.3656 17.3252 11.7239C24.3047 6.65891 24.836 6.2171 26.4454 4.95479C26.7505 4.7181 26.9293 4.34993 26.9293 3.96072V2.96139C26.9293 1.56759 25.7985 0.436768 24.4047 0.436768H2.52462C1.13082 0.436768 0 1.56759 0 2.96139V3.96072C0 4.34993 0.178827 4.71284 0.483886 4.95479C2.09333 6.21184 2.62455 6.65891 9.60408 11.7239C10.4877 12.3656 12.2444 13.9225 13.4646 13.9014Z" fill="#5F5F5F"/>
</svg>
