<svg width="32" height="29" viewBox="0 0 32 29" fill="none" xmlns="http://www.w3.org/2000/svg">
<path d="M15.9571 2.48419C14.2197 0.886693 11.9457 7.42284e-05 9.58554 0C8.33634 0.00130062 7.09972 0.24963 5.94685 0.730697C4.79399 1.21176 3.74764 1.91607 2.86803 2.80308C-0.883769 6.57082 -0.882175 12.464 2.87122 16.2158L14.5619 27.9065C14.833 28.3832 15.3559 28.691 15.9571 28.691C16.2039 28.6886 16.4467 28.6283 16.666 28.515C16.8853 28.4018 17.075 28.2387 17.2199 28.0388L29.0429 16.2158C32.7963 12.4624 32.7963 6.57082 29.0397 2.79671C28.1605 1.91132 27.115 1.20845 25.9633 0.728488C24.8116 0.24853 23.5763 0.000956057 22.3286 0C19.9685 0.000385797 17.6946 0.886962 15.9571 2.48419ZM26.7851 5.05129C29.2773 7.55621 29.2789 11.469 26.7883 13.9612L15.9571 24.7925L5.1258 13.9612C2.63523 11.469 2.63683 7.55621 5.12261 5.05767C6.33441 3.85225 7.91932 3.18895 9.58554 3.18895C11.2518 3.18895 12.8303 3.85225 14.0325 5.05448L14.8298 5.85172C14.9777 5.99992 15.1534 6.11749 15.3469 6.19771C15.5403 6.27793 15.7477 6.31922 15.9571 6.31922C16.1665 6.31922 16.3738 6.27793 16.5673 6.19771C16.7607 6.11749 16.9364 5.99992 17.0844 5.85172L17.8816 5.05448C20.2924 2.64842 24.3775 2.6548 26.7851 5.05129Z" fill="#5F5F5F"/>
</svg>
