<svg width="27" height="27" viewBox="0 0 27 27" fill="none" xmlns="http://www.w3.org/2000/svg">
<path d="M25.5525 18.5866L19.7987 16.1207C19.5529 16.0159 19.2797 15.9938 19.0203 16.0578C18.7609 16.1217 18.5292 16.2682 18.3602 16.4751L15.8121 19.5883C11.8131 17.7028 8.59482 14.4846 6.70933 10.4855L9.82254 7.93744C10.0299 7.76877 10.1767 7.53712 10.2407 7.27758C10.3046 7.01803 10.2823 6.74471 10.177 6.49899L7.7111 0.745202C7.59557 0.480327 7.39124 0.264065 7.13334 0.133707C6.87543 0.00334972 6.58013 -0.0329329 6.29834 0.0311159L0.95554 1.26407C0.683863 1.32681 0.441472 1.47978 0.267929 1.69801C0.0943853 1.91625 -6.25832e-05 2.18686 3.11126e-08 2.46569C3.11126e-08 15.6429 10.6805 26.3028 23.8371 26.3028C24.116 26.303 24.3868 26.2086 24.6051 26.035C24.8235 25.8615 24.9765 25.619 25.0393 25.3473L26.2722 20.0045C26.3358 19.7213 26.2988 19.4248 26.1674 19.166C26.0361 18.9072 25.8186 18.7023 25.5525 18.5866Z" fill="#5F5F5F"/>
</svg>
