<svg width="14" height="15" viewBox="0 0 14 15" fill="none" xmlns="http://www.w3.org/2000/svg">
<path d="M6.99018 13.2241C5.47203 13.2241 4.01606 12.6211 2.94256 11.5476C1.86907 10.4741 1.26598 9.0181 1.26598 7.49995C1.26598 5.98179 1.86907 4.52582 2.94256 3.45233C4.01606 2.37883 5.47203 1.77575 6.99018 1.77575C8.50833 1.77575 9.9643 2.37883 11.0378 3.45233C12.1113 4.52582 12.7144 5.98179 12.7144 7.49995C12.7144 9.0181 12.1113 10.4741 11.0378 11.5476C9.9643 12.6211 8.50833 13.2241 6.99018 13.2241ZM6.99018 14.0419C8.72521 14.0419 10.3892 13.3526 11.616 12.1258C12.8429 10.8989 13.5321 9.23498 13.5321 7.49995C13.5321 5.76492 12.8429 4.10095 11.616 2.8741C10.3892 1.64725 8.72521 0.958008 6.99018 0.958008C5.25515 0.958008 3.59118 1.64725 2.36433 2.8741C1.13748 4.10095 0.448242 5.76492 0.448242 7.49995C0.448242 9.23498 1.13748 10.8989 2.36433 12.1258C3.59118 13.3526 5.25515 14.0419 6.99018 14.0419Z" fill="black"/>
<path d="M5.5763 5.09169C5.64318 5.05726 5.71826 5.04194 5.79329 5.04742C5.86831 5.0529 5.94037 5.07897 6.00153 5.12277L8.86363 7.16712C8.91663 7.20495 8.95983 7.25488 8.98964 7.31277C9.01945 7.37066 9.035 7.43483 9.035 7.49995C9.035 7.56506 9.01945 7.62923 8.98964 7.68712C8.95983 7.74501 8.91663 7.79494 8.86363 7.83277L6.00153 9.87712C5.94039 9.92088 5.86837 9.94693 5.79338 9.95242C5.7184 9.9579 5.64335 9.9426 5.5765 9.9082C5.50964 9.8738 5.45357 9.82163 5.41444 9.75743C5.37531 9.69323 5.35463 9.61949 5.3547 9.5443V5.45559C5.35462 5.38043 5.37526 5.30669 5.41436 5.2425C5.45345 5.1783 5.50949 5.12612 5.5763 5.09169Z" fill="black"/>
</svg>
