<svg width="70" height="70" viewBox="0 0 70 70" fill="none" xmlns="http://www.w3.org/2000/svg">
<path d="M34.789 0C27.9084 0 21.1823 2.04034 15.4613 5.863C9.74026 9.68567 5.28127 15.119 2.64817 21.4758C0.0150734 27.8327 -0.673864 34.8276 0.668476 41.576C2.01082 48.3244 5.32415 54.5232 10.1895 59.3885C15.0548 64.2538 21.2536 67.5672 28.002 68.9095C34.7504 70.2519 41.7453 69.5629 48.1022 66.9298C54.459 64.2967 59.8923 59.8377 63.715 54.1167C67.5377 48.3957 69.578 41.6696 69.578 34.789C69.578 25.5624 65.9127 16.7137 59.3885 10.1895C52.8643 3.66526 44.0156 0 34.789 0ZM49.44 35.8975C49.1988 36.3806 48.8072 36.7722 48.3241 37.0133V37.0253L28.4452 46.9648C28.0653 47.1547 27.643 47.2441 27.2187 47.2244C26.7944 47.2047 26.3823 47.0766 26.0216 46.8523C25.6609 46.628 25.3637 46.315 25.1583 45.9432C24.953 45.5714 24.8464 45.1532 24.8486 44.7284V24.8495C24.8484 24.4258 24.9565 24.0091 25.1627 23.6389C25.3689 23.2687 25.6663 22.9574 26.0267 22.7345C26.3871 22.5116 26.7984 22.3846 27.2217 22.3655C27.645 22.3463 28.0662 22.4357 28.4452 22.6252L48.3232 32.5646C48.6154 32.71 48.8762 32.9116 49.0905 33.1578C49.3048 33.4041 49.4685 33.6901 49.5722 33.9996C49.6759 34.3091 49.7176 34.6361 49.695 34.9617C49.6723 35.2874 49.5856 35.6053 49.44 35.8975Z" fill="#E3FC52"/>
</svg>
