<svg width="32" height="32" viewBox="0 0 32 32" fill="none" xmlns="http://www.w3.org/2000/svg">
<path d="M6.28751 20.7431C7.68282 20.7352 9.02485 20.2063 10.0505 19.2602L20.0319 24.9684C19.9047 25.409 19.8403 25.8652 19.8405 26.3237C19.8303 27.6177 20.2662 28.8757 21.0749 29.8859C21.8837 30.8961 23.0158 31.5967 24.2806 31.8699C25.5455 32.1431 26.8658 31.9721 28.0194 31.3857C29.1729 30.7993 30.0892 29.8334 30.6139 28.6505C31.1386 27.4676 31.2397 26.1401 30.9001 24.8914C30.5606 23.6427 29.8011 22.5492 28.7497 21.7949C27.6982 21.0406 26.419 20.6717 25.1274 20.7502C23.8357 20.8287 22.6106 21.3498 21.6582 22.2259L11.6768 16.5177C11.7973 16.1248 11.8617 15.7168 11.8682 15.3059L21.6742 9.69337C22.6214 10.5493 23.8341 11.0536 25.109 11.1215C26.3839 11.1895 27.6433 10.817 28.6762 10.0666C29.709 9.31612 30.4524 8.23335 30.7816 6.99986C31.1109 5.76637 31.006 4.45718 30.4845 3.29185C29.9631 2.12652 29.0568 1.17592 27.9176 0.599499C26.7785 0.0230735 25.4758 -0.144128 24.228 0.125936C22.9802 0.396001 21.8632 1.08691 21.0644 2.08278C20.2656 3.07865 19.8334 4.31892 19.8405 5.59558C19.8459 6.05368 19.9102 6.50919 20.0319 6.95088L10.9593 12.1329C10.4336 11.3197 9.70537 10.6572 8.84613 10.2106C7.98689 9.76406 7.02623 9.54876 6.05858 9.58588C5.09093 9.62301 4.1496 9.91129 3.3271 10.4224C2.5046 10.9335 1.82925 11.6498 1.36743 12.501C0.905605 13.3521 0.673204 14.3088 0.693069 15.2769C0.712934 16.2451 0.98438 17.1914 1.48073 18.0229C1.97708 18.8544 2.68124 19.5424 3.52401 20.0193C4.36678 20.4962 5.31915 20.7457 6.28751 20.7431ZM25.4212 23.932C25.8942 23.932 26.3566 24.0723 26.7499 24.3351C27.1433 24.5979 27.4498 24.9714 27.6308 25.4085C27.8119 25.8455 27.8592 26.3264 27.7669 26.7903C27.6747 27.2543 27.4469 27.6804 27.1124 28.0149C26.7779 28.3494 26.3517 28.5772 25.8878 28.6695C25.4238 28.7618 24.9429 28.7144 24.5059 28.5334C24.0689 28.3524 23.6954 28.0458 23.4326 27.6525C23.1697 27.2592 23.0295 26.7968 23.0295 26.3237C23.0295 25.6894 23.2815 25.0811 23.73 24.6325C24.1785 24.184 24.7869 23.932 25.4212 23.932ZM25.4212 3.20387C25.8942 3.20387 26.3566 3.34414 26.7499 3.60694C27.1433 3.86975 27.4498 4.24328 27.6308 4.68031C27.8119 5.11734 27.8592 5.59823 27.7669 6.06218C27.6747 6.52612 27.4469 6.95229 27.1124 7.28677C26.7779 7.62126 26.3517 7.84905 25.8878 7.94133C25.4238 8.03362 24.9429 7.98625 24.5059 7.80523C24.0689 7.62421 23.6954 7.31766 23.4326 6.92434C23.1697 6.53103 23.0295 6.06861 23.0295 5.59558C23.0295 4.96126 23.2815 4.35292 23.73 3.90438C24.1785 3.45585 24.7869 3.20387 25.4212 3.20387ZM6.28751 12.7707C6.76054 12.7707 7.22296 12.911 7.61627 13.1738C8.00958 13.4366 8.31614 13.8101 8.49716 14.2471C8.67818 14.6842 8.72555 15.1651 8.63326 15.629C8.54098 16.093 8.31319 16.5191 7.9787 16.8536C7.64421 17.1881 7.21805 17.4159 6.75411 17.5082C6.29016 17.6005 5.80927 17.5531 5.37224 17.3721C4.93521 17.191 4.56168 16.8845 4.29887 16.4912C4.03607 16.0979 3.8958 15.6355 3.8958 15.1624C3.8958 14.5281 4.14778 13.9198 4.59631 13.4712C5.04484 13.0227 5.65319 12.7707 6.28751 12.7707Z" fill="#5F5F5F"/>
</svg>
